REM DIRINDEX 1\2\6,1\2\7,1\2\8,1\3\9,1\3\10,1\3\11,1\4\12,1\4\13,1\4\14,1\5\15,1\5\16,1\5\17,1\5\18
REM DIRNAME folder01,folder02,folder03,folder04,folder05,folder06,folder07,folder08,folder09,folder10,folder11,folder12,folder13,folder14,folder15,folder16,folder17,folder18
TITLE ""
FILE "2Q_t_0513-0530.mp3" MP3
  TRACK 01 AUDIO
    TITLE "13:cjc019_3084"
    INDEX 01 00:00:00
  TRACK 02 AUDIO
    TITLE "0:"
    INDEX 01 00:00:64
  TRACK 03 AUDIO
    TITLE "14:cjc019_3085"
    INDEX 01 00:01:52
  TRACK 04 AUDIO
    TITLE "0:"
    INDEX 01 00:04:25
  TRACK 05 AUDIO
    TITLE "13:cjc019_3086"
    INDEX 01 00:05:03
  TRACK 06 AUDIO
    TITLE "0:"
    INDEX 01 00:06:41
  TRACK 07 AUDIO
    TITLE "14:cjc019_3087"
    INDEX 01 00:07:21
  TRACK 08 AUDIO
    TITLE "0:"
    INDEX 01 00:08:73
  TRACK 09 AUDIO
    TITLE "13:cjc019_3088"
    INDEX 01 00:09:49
  TRACK 10 AUDIO
    TITLE "0:"
    INDEX 01 00:11:01
  TRACK 11 AUDIO
    TITLE "14:cjc019_3089"
    INDEX 01 00:11:54
  TRACK 12 AUDIO
    TITLE "0:"
    INDEX 01 00:13:33
  TRACK 13 AUDIO
    TITLE "13:cjc019_3090"
    INDEX 01 00:14:13
  TRACK 14 AUDIO
    TITLE "0:"
    INDEX 01 00:15:25
  TRACK 15 AUDIO
    TITLE "14:cjc019_3091"
    INDEX 01 00:16:10
  TRACK 16 AUDIO
    TITLE "0:"
    INDEX 01 00:19:07
  TRACK 17 AUDIO
    TITLE "13:cjc019_3092"
    INDEX 01 00:19:63
  TRACK 18 AUDIO
    TITLE "0:"
    INDEX 01 00:20:73
  TRACK 19 AUDIO
    TITLE "14:cjc019_3093"
    INDEX 01 00:21:58
  TRACK 20 AUDIO
    TITLE "0:"
    INDEX 01 00:24:27
  TRACK 21 AUDIO
    TITLE "13:cjc019_3094"
    INDEX 01 00:24:74
  TRACK 22 AUDIO
    TITLE "0:"
    INDEX 01 00:26:18
  TRACK 23 AUDIO
    TITLE "14:cjc019_3095"
    INDEX 01 00:27:02
  TRACK 24 AUDIO
    TITLE "0:"
    INDEX 01 00:28:39
  TRACK 25 AUDIO
    TITLE "13:cjc019_3096"
    INDEX 01 00:29:21
  TRACK 26 AUDIO
    TITLE "0:"
    INDEX 01 00:30:59
  TRACK 27 AUDIO
    TITLE "14:cjc019_3097"
    INDEX 01 00:31:43
  TRACK 28 AUDIO
    TITLE "0:"
    INDEX 01 00:33:13
  TRACK 29 AUDIO
    TITLE "13:cjc019_3098"
    INDEX 01 00:34:00
  TRACK 30 AUDIO
    TITLE "0:"
    INDEX 01 00:35:17
  TRACK 31 AUDIO
    TITLE "14:cjc019_3099"
    INDEX 01 00:35:72
  TRACK 32 AUDIO
    TITLE "0:"
    INDEX 01 00:39:43
  TRACK 33 AUDIO
    TITLE "13:cjc019_3100"
    INDEX 01 00:40:19
  TRACK 34 AUDIO
    TITLE "0:"
    INDEX 01 00:41:40
  TRACK 35 AUDIO
    TITLE "14:cjc019_3101"
    INDEX 01 00:42:19
  TRACK 36 AUDIO
    TITLE "0:"
    INDEX 01 00:43:70
  TRACK 37 AUDIO
    TITLE "13:cjc019_3102"
    INDEX 01 00:44:44
  TRACK 38 AUDIO
    TITLE "0:"
    INDEX 01 00:45:61
  TRACK 39 AUDIO
    TITLE "14:cjc019_3103"
    INDEX 01 00:46:41
  TRACK 40 AUDIO
    TITLE "0:"
    INDEX 01 00:49:57
  TRACK 41 AUDIO
    TITLE "13:cjc019_3104"
    INDEX 01 00:50:33
  TRACK 42 AUDIO
    TITLE "0:"
    INDEX 01 00:51:58
  TRACK 43 AUDIO
    TITLE "14:cjc019_3105"
    INDEX 01 00:52:43
  TRACK 44 AUDIO
    TITLE "0:"
    INDEX 01 00:54:25
  TRACK 45 AUDIO
    TITLE "13:cjc019_3106"
    INDEX 01 00:55:03
  TRACK 46 AUDIO
    TITLE "0:"
    INDEX 01 00:56:04
  TRACK 47 AUDIO
    TITLE "14:cjc019_3107"
    INDEX 01 00:56:57
  TRACK 48 AUDIO
    TITLE "0:"
    INDEX 01 00:59:73
  TRACK 49 AUDIO
    TITLE "13:cjc019_3108"
    INDEX 01 01:00:45
  TRACK 50 AUDIO
    TITLE "0:"
    INDEX 01 01:01:58
  TRACK 51 AUDIO
    TITLE "14:cjc019_3109"
    INDEX 01 01:02:34
  TRACK 52 AUDIO
    TITLE "0:"
    INDEX 01 01:04:01
  TRACK 53 AUDIO
    TITLE "13:cjc019_3110"
    INDEX 01 01:04:56
  TRACK 54 AUDIO
    TITLE "0:"
    INDEX 01 01:05:64
  TRACK 55 AUDIO
    TITLE "14:cjc019_3111"
    INDEX 01 01:06:51
  TRACK 56 AUDIO
    TITLE "0:"
    INDEX 01 01:08:31
  TRACK 57 AUDIO
    TITLE "13:cjc019_3112"
    INDEX 01 01:09:05
  TRACK 58 AUDIO
    TITLE "0:"
    INDEX 01 01:10:18
  TRACK 59 AUDIO
    TITLE "14:cjc019_3113"
    INDEX 01 01:11:03
  TRACK 60 AUDIO
    TITLE "0:"
    INDEX 01 01:14:10
  TRACK 61 AUDIO
    TITLE "13:cjc019_3114"
    INDEX 01 01:14:66
  TRACK 62 AUDIO
    TITLE "0:"
    INDEX 01 01:16:20
  TRACK 63 AUDIO
    TITLE "14:cjc019_3115"
    INDEX 01 01:16:71
  TRACK 64 AUDIO
    TITLE "0:"
    INDEX 01 01:18:43
  TRACK 65 AUDIO
    TITLE "13:cjc019_3116"
    INDEX 01 01:19:21
  TRACK 66 AUDIO
    TITLE "0:"
    INDEX 01 01:20:48
  TRACK 67 AUDIO
    TITLE "14:cjc019_3117"
    INDEX 01 01:21:27
  TRACK 68 AUDIO
    TITLE "0:"
    INDEX 01 01:25:21
  TRACK 69 AUDIO
    TITLE "13:cjc019_3118"
    INDEX 01 01:25:70
  TRACK 70 AUDIO
    TITLE "0:"
    INDEX 01 01:27:14
  TRACK 71 AUDIO
    TITLE "14:cjc019_3119"
    INDEX 01 01:27:73
  TRACK 72 AUDIO
    TITLE "0:"
    INDEX 01 01:30:64
